TITLE ""
FILE "DISC1Track05.mp3" MP3
  TRACK 01 AUDIO
    TITLE "DISC1Track05_01"
    INDEX 01 00:00:00
  TRACK 02 AUDIO
    TITLE "DISC1Track05_02"
    INDEX 01 00:01:12
  TRACK 03 AUDIO
    TITLE "DISC1Track05_03"
    INDEX 01 00:01:33
  TRACK 04 AUDIO
    TITLE "DISC1Track05_04"
    INDEX 01 00:04:53
  TRACK 05 AUDIO
    TITLE "DISC1Track05_05"
    INDEX 01 00:08:47
  TRACK 06 AUDIO
    TITLE "DISC1Track05_06"
    INDEX 01 00:12:08
  TRACK 07 AUDIO
    TITLE "DISC1Track05_07"
    INDEX 01 00:12:25
  TRACK 08 AUDIO
    TITLE "DISC1Track05_08"
    INDEX 01 00:16:29
  TRACK 09 AUDIO
    TITLE "DISC1Track05_09"
    INDEX 01 00:19:49
  TRACK 10 AUDIO
    TITLE "DISC1Track05_10"
    INDEX 01 00:22:47
  TRACK 11 AUDIO
    TITLE "DISC1Track05_11"
    INDEX 01 00:22:63
  TRACK 12 AUDIO
    TITLE "DISC1Track05_12"
    INDEX 01 00:24:26
  TRACK 13 AUDIO
    TITLE "DISC1Track05_13"
    INDEX 01 00:26:16
  TRACK 14 AUDIO
    TITLE "DISC1Track05_14"
    INDEX 01 00:27:58
  TRACK 15 AUDIO
    TITLE "DISC1Track05_15"
    INDEX 01 00:27:74
  TRACK 16 AUDIO
    TITLE "DISC1Track05_16"
    INDEX 01 00:32:20
  TRACK 17 AUDIO
    TITLE "DISC1Track05_17"
    INDEX 01 00:36:41
  TRACK 18 AUDIO
    TITLE "DISC1Track05_18"
    INDEX 01 00:40:35
  TRACK 19 AUDIO
    TITLE "DISC1Track05_19"
    INDEX 01 00:40:49
  TRACK 20 AUDIO
    TITLE "DISC1Track05_20"
    INDEX 01 00:44:39
  TRACK 21 AUDIO
    TITLE "DISC1Track05_21"
    INDEX 01 00:48:49
  TRACK 22 AUDIO
    TITLE "DISC1Track05_22"
    INDEX 01 00:52:23
  TRACK 23 AUDIO
    TITLE "DISC1Track05_23"
    INDEX 01 00:52:36
  TRACK 24 AUDIO
    TITLE "DISC1Track05_24"
    INDEX 01 00:55:35
  TRACK 25 AUDIO
    TITLE "DISC1Track05_25"
    INDEX 01 00:58:27
  TRACK 26 AUDIO
    TITLE "DISC1Track05_26"
    INDEX 01 01:00:61
  TRACK 27 AUDIO
    TITLE "DISC1Track05_27"
    INDEX 01 01:01:02
  TRACK 28 AUDIO
    TITLE "DISC1Track05_28"
    INDEX 01 01:02:47
  TRACK 29 AUDIO
    TITLE "DISC1Track05_29"
    INDEX 01 01:04:65
  TRACK 30 AUDIO
    TITLE "DISC1Track05_30"
    INDEX 01 01:06:46
  TRACK 31 AUDIO
    TITLE "DISC1Track05_31"
    INDEX 01 01:06:66
  TRACK 32 AUDIO
    TITLE "DISC1Track05_32"
    INDEX 01 01:09:47
  TRACK 33 AUDIO
    TITLE "DISC1Track05_33"
    INDEX 01 01:11:75
  TRACK 34 AUDIO
    TITLE "DISC1Track05_34"
    INDEX 01 01:13:68
  TRACK 35 AUDIO
    TITLE "DISC1Track05_35"
    INDEX 01 01:14:07
  TRACK 36 AUDIO
    TITLE "DISC1Track05_36"
    INDEX 01 01:17:64
  TRACK 37 AUDIO
    TITLE "DISC1Track05_37"
    INDEX 01 01:22:30
  TRACK 38 AUDIO
    TITLE "DISC1Track05_38"
    INDEX 01 01:26:37
  TRACK 39 AUDIO
    TITLE "DISC1Track05_39"
    INDEX 01 01:26:49
  TRACK 40 AUDIO
    TITLE "DISC1Track05_40"
    INDEX 01 01:29:42
  TRACK 41 AUDIO
    TITLE "DISC1Track05_41"
    INDEX 01 01:32:67
  TRACK 42 AUDIO
    TITLE "DISC1Track05_42"
    INDEX 01 01:35:56
  TRACK 43 AUDIO
    TITLE "DISC1Track05_43"
    INDEX 01 01:35:72
  TRACK 44 AUDIO
    TITLE "DISC1Track05_44"
    INDEX 01 01:39:18
  TRACK 45 AUDIO
    TITLE "DISC1Track05_45"
    INDEX 01 01:41:70
  TRACK 46 AUDIO
    TITLE "DISC1Track05_46"
    INDEX 01 01:44:27
  TRACK 47 AUDIO
    TITLE "DISC1Track05_47"
    INDEX 01 01:44:43
  TRACK 48 AUDIO
    TITLE "DISC1Track05_48"
    INDEX 01 01:47:59
  TRACK 49 AUDIO
    TITLE "DISC1Track05_49"
    INDEX 01 01:51:20
  TRACK 50 AUDIO
    TITLE "DISC1Track05_50"
    INDEX 01 01:54:16
